<mxfile host="app.diagrams.net" modified="2023-06-01T06:54:04.288Z" agent="Mozilla/5.0 (Windows NT 10.0; Win64; x64) AppleWebKit/537.36 (KHTML, like Gecko) Chrome/112.0.0.0 Safari/537.36" etag="16FfDhWBh_Wm58IIsNCA" version="21.3.4" type="github">
  <diagram name="第 1 页" id="9NbreCFsuZpAMpSDcSNB">
    <mxGraphModel dx="989" dy="549" grid="1" gridSize="10" guides="1" tooltips="1" connect="1" arrows="1" fold="1" page="1" pageScale="1" pageWidth="827" pageHeight="1169" math="0" shadow="0">
      <root>
        <mxCell id="0" />
        <mxCell id="1" parent="0" />
        <mxCell id="ab81rA_1TC5zVjqGRFnB-1" value="" style="shape=internalStorage;whiteSpace=wrap;html=1;backgroundOutline=1;dx=40;dy=40;spacing=3;" vertex="1" parent="1">
          <mxGeometry x="270" y="220" width="770" height="430" as="geometry" />
        </mxCell>
        <mxCell id="ab81rA_1TC5zVjqGRFnB-2" value="" style="endArrow=none;html=1;rounded=0;entryX=0.5;entryY=0;entryDx=0;entryDy=0;exitX=0.5;exitY=1;exitDx=0;exitDy=0;" edge="1" parent="1" source="ab81rA_1TC5zVjqGRFnB-1" target="ab81rA_1TC5zVjqGRFnB-1">
          <mxGeometry width="50" height="50" relative="1" as="geometry">
            <mxPoint x="390" y="430" as="sourcePoint" />
            <mxPoint x="440" y="380" as="targetPoint" />
          </mxGeometry>
        </mxCell>
        <mxCell id="ab81rA_1TC5zVjqGRFnB-3" value="全员工资管理系统" style="text;html=1;strokeColor=none;fillColor=none;align=center;verticalAlign=middle;whiteSpace=wrap;rounded=0;" vertex="1" parent="1">
          <mxGeometry x="470" y="227" width="60" height="30" as="geometry" />
        </mxCell>
        <mxCell id="ab81rA_1TC5zVjqGRFnB-4" value="班组管理子系统" style="text;html=1;strokeColor=none;fillColor=none;align=center;verticalAlign=middle;whiteSpace=wrap;rounded=0;" vertex="1" parent="1">
          <mxGeometry x="840" y="227" width="60" height="30" as="geometry" />
        </mxCell>
        <mxCell id="ab81rA_1TC5zVjqGRFnB-11" style="edgeStyle=orthogonalEdgeStyle;rounded=0;orthogonalLoop=1;jettySize=auto;html=1;exitX=0.5;exitY=1;exitDx=0;exitDy=0;entryX=0.5;entryY=0;entryDx=0;entryDy=0;fillColor=#dae8fc;strokeColor=#6c8ebf;" edge="1" parent="1" source="ab81rA_1TC5zVjqGRFnB-6" target="ab81rA_1TC5zVjqGRFnB-7">
          <mxGeometry relative="1" as="geometry" />
        </mxCell>
        <mxCell id="ab81rA_1TC5zVjqGRFnB-6" value="人员起薪" style="rounded=1;whiteSpace=wrap;html=1;fillColor=#dae8fc;strokeColor=#6c8ebf;" vertex="1" parent="1">
          <mxGeometry x="385.8" y="390" width="80" height="40" as="geometry" />
        </mxCell>
        <mxCell id="ab81rA_1TC5zVjqGRFnB-13" style="edgeStyle=orthogonalEdgeStyle;rounded=0;orthogonalLoop=1;jettySize=auto;html=1;exitX=1;exitY=0.5;exitDx=0;exitDy=0;entryX=0;entryY=0.5;entryDx=0;entryDy=0;" edge="1" parent="1" source="ab81rA_1TC5zVjqGRFnB-7" target="ab81rA_1TC5zVjqGRFnB-10">
          <mxGeometry relative="1" as="geometry" />
        </mxCell>
        <mxCell id="ab81rA_1TC5zVjqGRFnB-16" value="通过视图同步" style="edgeLabel;html=1;align=center;verticalAlign=middle;resizable=0;points=[];" vertex="1" connectable="0" parent="ab81rA_1TC5zVjqGRFnB-13">
          <mxGeometry x="0.1792" relative="1" as="geometry">
            <mxPoint x="28" as="offset" />
          </mxGeometry>
        </mxCell>
        <mxCell id="ab81rA_1TC5zVjqGRFnB-7" value="人员信息" style="rounded=1;whiteSpace=wrap;html=1;fillColor=#dae8fc;strokeColor=#6c8ebf;" vertex="1" parent="1">
          <mxGeometry x="385.8" y="565" width="80" height="40" as="geometry" />
        </mxCell>
        <mxCell id="ab81rA_1TC5zVjqGRFnB-12" value="添加" style="edgeStyle=orthogonalEdgeStyle;rounded=0;orthogonalLoop=1;jettySize=auto;html=1;exitX=0;exitY=0.5;exitDx=0;exitDy=0;entryX=0.5;entryY=0;entryDx=0;entryDy=0;fillColor=#dae8fc;strokeColor=#6c8ebf;" edge="1" parent="1" source="ab81rA_1TC5zVjqGRFnB-8" target="ab81rA_1TC5zVjqGRFnB-7">
          <mxGeometry x="0.3387" relative="1" as="geometry">
            <mxPoint x="421.7999999999998" y="510" as="targetPoint" />
            <mxPoint as="offset" />
          </mxGeometry>
        </mxCell>
        <mxCell id="ab81rA_1TC5zVjqGRFnB-14" style="edgeStyle=orthogonalEdgeStyle;rounded=0;orthogonalLoop=1;jettySize=auto;html=1;exitX=1;exitY=0.5;exitDx=0;exitDy=0;" edge="1" parent="1" source="ab81rA_1TC5zVjqGRFnB-8" target="ab81rA_1TC5zVjqGRFnB-9">
          <mxGeometry relative="1" as="geometry" />
        </mxCell>
        <mxCell id="ab81rA_1TC5zVjqGRFnB-15" value="通过视图同步" style="edgeLabel;html=1;align=center;verticalAlign=middle;resizable=0;points=[];" vertex="1" connectable="0" parent="ab81rA_1TC5zVjqGRFnB-14">
          <mxGeometry x="0.0974" y="-2" relative="1" as="geometry">
            <mxPoint x="-5" y="-2" as="offset" />
          </mxGeometry>
        </mxCell>
        <mxCell id="ab81rA_1TC5zVjqGRFnB-8" value="机构信息" style="rounded=1;whiteSpace=wrap;html=1;fillColor=#dae8fc;strokeColor=#6c8ebf;" vertex="1" parent="1">
          <mxGeometry x="490" y="478" width="80" height="40" as="geometry" />
        </mxCell>
        <mxCell id="ab81rA_1TC5zVjqGRFnB-9" value="机构信息" style="rounded=1;whiteSpace=wrap;html=1;fillColor=#d5e8d4;strokeColor=#82b366;" vertex="1" parent="1">
          <mxGeometry x="733.8" y="478" width="80" height="40" as="geometry" />
        </mxCell>
        <mxCell id="ab81rA_1TC5zVjqGRFnB-19" style="edgeStyle=orthogonalEdgeStyle;rounded=0;orthogonalLoop=1;jettySize=auto;html=1;exitX=1;exitY=0.5;exitDx=0;exitDy=0;fillColor=#d5e8d4;strokeColor=#82b366;" edge="1" parent="1" source="ab81rA_1TC5zVjqGRFnB-10" target="ab81rA_1TC5zVjqGRFnB-18">
          <mxGeometry relative="1" as="geometry" />
        </mxCell>
        <mxCell id="ab81rA_1TC5zVjqGRFnB-10" value="人员信息" style="rounded=1;whiteSpace=wrap;html=1;fillColor=#d5e8d4;strokeColor=#82b366;" vertex="1" parent="1">
          <mxGeometry x="733.8" y="565" width="80" height="40" as="geometry" />
        </mxCell>
        <mxCell id="ab81rA_1TC5zVjqGRFnB-17" value="&lt;sup&gt;班组系统没有新增人员及机构的权限，都是通过视图拿工资管理系统的&lt;/sup&gt;" style="shape=document;whiteSpace=wrap;html=1;boundedLbl=1;fillColor=#d5e8d4;strokeColor=#82b366;spacingTop=2;spacingLeft=2;spacingBottom=2;spacingRight=2;spacing=2;fontSize=8;" vertex="1" parent="1">
          <mxGeometry x="670" y="270" width="151.59" height="90" as="geometry" />
        </mxCell>
        <mxCell id="ab81rA_1TC5zVjqGRFnB-18" value="人员分配" style="rounded=1;whiteSpace=wrap;html=1;fillColor=#d5e8d4;strokeColor=#82b366;" vertex="1" parent="1">
          <mxGeometry x="899.9999999999999" y="565" width="80" height="40" as="geometry" />
        </mxCell>
        <mxCell id="ab81rA_1TC5zVjqGRFnB-22" value="&lt;font style=&quot;font-size: 12px;&quot;&gt;&lt;sub&gt;人员编码规则：&lt;br style=&quot;font-size: 11px;&quot;&gt;纯月薪、混合月薪从600001开始&lt;br&gt;&amp;nbsp; &amp;nbsp; &amp;nbsp; &amp;nbsp;车间计件人员从620001开始&lt;/sub&gt;&lt;br&gt;&lt;/font&gt;" style="shape=document;whiteSpace=wrap;html=1;boundedLbl=1;fillColor=#dae8fc;strokeColor=#6c8ebf;fontSize=7;verticalAlign=top;" vertex="1" parent="1">
          <mxGeometry x="320" y="270" width="180" height="100" as="geometry" />
        </mxCell>
      </root>
    </mxGraphModel>
  </diagram>
</mxfile>
